# xmcd CD database file
#
# Track frame offsets:
#	150
#	9464
#	22318
#	40155
#	55859
#	72878
#	86189
#	102045
#	118795
#	135241
#	149801
#	159746
#	172716
#
# Disc length: 2544 seconds
#
# Revision: 0
# Processed by: cddbd v1.5.1PL2 Copyright (c) Steve Scherf et al.
# Submitted via: Feurio! 1.68 - http://www.feurio.com
#
DISCID=af09ee0d
DTITLE=Cannibal Corpse - Kill
DYEAR=1900
DGENRE=Death Metal
TTITLE0=The Time To Kill Is Now
TTITLE1=Make Them Suffer
TTITLE2=Murder Worship
TTITLE3=Necrosadistic Warning
TTITLE4=Five Nails Through The Neck
TTITLE5=Purification By Fire
TTITLE6=Death Walking Terror
TTITLE7=Barbaric Bludgeonings
TTITLE8=The Discipline Of Revenge
TTITLE9=Brain Removal Device
TTITLE10=Maniacal
TTITLE11=Submerged In Boiling Flesh
TTITLE12=Infinite Misery
EXTD=
EXTT0=
EXTT1=
EXTT2=
EXTT3=
EXTT4=
EXTT5=
EXTT6=
EXTT7=
EXTT8=
EXTT9=
EXTT10=
EXTT11=
EXTT12=
PLAYORDER=
